# xmcd CD database file
#
# Track frame offsets:
#	150
#	8272
#	21557
#	34277
#	42705
#	56535
#	69265
#	81767
#	92327
#	100947
#	111977
#	120592
#
# Disc length: 1732 seconds
#
# Revision: 0
# Processed by: cddbd v1.4PL0 Copyright (c) Steve Scherf et al.
# Submitted via: CDex 1.40Release
#
DISCID=9306c20c
DTITLE=Willie Nelson and Waylon Jennings - Burning Memories
DYEAR=2002
DGENRE=Country
TTITLE0=Things To Remember
TTITLE1=You'll Always Have Someone
TTITLE2=Any Old Arms Won't Do
TTITLE3=Slow Down The World
TTITLE4=Home Is Where You're Happy
TTITLE5=I Just Don't Understand
TTITLE6=And So Will You Love Me
TTITLE7=Burning Memories
TTITLE8=Abilene
TTITLE9=Love's Got To Live Here
TTITLE10=Big Mamou
TTITLE11=Jolie Blou
EXTD=YEAR: 2002 ID3G: 2
EXTT0=
EXTT1=
EXTT2=
EXTT3=
EXTT4=
EXTT5=
EXTT6=
EXTT7=
EXTT8=
EXTT9=
EXTT10=
EXTT11=
PLAYORDER=
